{
	"asset":{
		"generator":"Khronos glTF Blender I/O v4.0.43",
		"version":"2.0"
	},
	"scene":0,
	"scenes":[
		{
			"extras":{
				"uuid":"eda3e6dc-6391-48ec-9a53-47d632160d64",
				"assets reported":{},
				"blenderkitUI":{
					"assetbar_on":0,
					"turn_off":0
				},
				"blenderkit_models":{}
			},
			"name":"Scene",
			"nodes":[
				5
			]
		}
	],
	"nodes":[
		{
			"mesh":0,
			"name":"body"
		},
		{
			"extras":{
				"customisable":true
			},
			"mesh":1,
			"name":"drawer 1",
			"translation":[
				0.49976345896720886,
				0.9166646003723145,
				0
			]
		},
		{
			"extras":{
				"customisable":true
			},
			"mesh":2,
			"name":"drawer 2",
			"translation":[
				0.4997188150882721,
				0.74966961145401,
				0
			]
		},
		{
			"extras":{
				"customisable":true
			},
			"mesh":3,
			"name":"drawer 3",
			"translation":[
				0.49991634488105774,
				0.50008225440979,
				0
			]
		},
		{
			"extras":{
				"customisable":true
			},
			"mesh":4,
			"name":"drawer 4",
			"translation":[
				0.49991634488105774,
				0.16679057478904724,
				0
			]
		},
		{
			"children":[
				0,
				1,
				2,
				3,
				4
			],
			"name":"scaler",
			"scale":[
				0.4000000059604645,
				0.6000000238418579,
				0.4000000059604645
			]
		}
	],
	"meshes":[
		{
			"name":"Cube.002",
			"primitives":[
				{
					"attributes":{
						"POSITION":0,
						"NORMAL":1,
						"TEXCOORD_0":2
					},
					"indices":3
				}
			]
		},
		{
			"name":"Cube.004",
			"primitives":[
				{
					"attributes":{
						"POSITION":4,
						"NORMAL":5,
						"TEXCOORD_0":6
					},
					"indices":7
				}
			]
		},
		{
			"name":"Cube.008",
			"primitives":[
				{
					"attributes":{
						"POSITION":8,
						"NORMAL":9,
						"TEXCOORD_0":10
					},
					"indices":7
				}
			]
		},
		{
			"name":"Cube.006",
			"primitives":[
				{
					"attributes":{
						"POSITION":11,
						"NORMAL":12,
						"TEXCOORD_0":13
					},
					"indices":14
				}
			]
		},
		{
			"name":"Cube.009",
			"primitives":[
				{
					"attributes":{
						"POSITION":15,
						"NORMAL":16,
						"TEXCOORD_0":17
					},
					"indices":14
				}
			]
		}
	],
	"accessors":[
		{
			"bufferView":0,
			"componentType":5126,
			"count":96,
			"max":[
				0.47514986991882324,
				0.9999999403953552,
				0.4998973608016968
			],
			"min":[
				-0.47514986991882324,
				0,
				-0.4998973608016968
			],
			"type":"VEC3"
		},
		{
			"bufferView":1,
			"componentType":5126,
			"count":96,
			"type":"VEC3"
		},
		{
			"bufferView":2,
			"componentType":5126,
			"count":96,
			"type":"VEC2"
		},
		{
			"bufferView":3,
			"componentType":5123,
			"count":324,
			"type":"SCALAR"
		},
		{
			"bufferView":4,
			"componentType":5126,
			"count":70,
			"max":[
				0.025086553767323494,
				0.08333512395620346,
				0.4998922646045685
			],
			"min":[
				-0.024913404136896133,
				-0.08333150297403336,
				-0.4998922646045685
			],
			"type":"VEC3"
		},
		{
			"bufferView":5,
			"componentType":5126,
			"count":70,
			"type":"VEC3"
		},
		{
			"bufferView":6,
			"componentType":5126,
			"count":70,
			"type":"VEC2"
		},
		{
			"bufferView":7,
			"componentType":5123,
			"count":324,
			"type":"SCALAR"
		},
		{
			"bufferView":8,
			"componentType":5126,
			"count":70,
			"max":[
				0.025086553767323494,
				0.08333512395620346,
				0.4998922646045685
			],
			"min":[
				-0.024913404136896133,
				-0.08333150297403336,
				-0.4998922646045685
			],
			"type":"VEC3"
		},
		{
			"bufferView":9,
			"componentType":5126,
			"count":70,
			"type":"VEC3"
		},
		{
			"bufferView":10,
			"componentType":5126,
			"count":70,
			"type":"VEC2"
		},
		{
			"bufferView":11,
			"componentType":5126,
			"count":69,
			"max":[
				0.02493366412818432,
				0.16658419370651245,
				0.4999505877494812
			],
			"min":[
				-0.025066286325454712,
				-0.16674907505512238,
				-0.500049352645874
			],
			"type":"VEC3"
		},
		{
			"bufferView":12,
			"componentType":5126,
			"count":69,
			"type":"VEC3"
		},
		{
			"bufferView":13,
			"componentType":5126,
			"count":69,
			"type":"VEC2"
		},
		{
			"bufferView":14,
			"componentType":5123,
			"count":324,
			"type":"SCALAR"
		},
		{
			"bufferView":15,
			"componentType":5126,
			"count":69,
			"max":[
				0.02493366412818432,
				0.16658419370651245,
				0.4999505877494812
			],
			"min":[
				-0.025066286325454712,
				-0.16674907505512238,
				-0.500049352645874
			],
			"type":"VEC3"
		},
		{
			"bufferView":16,
			"componentType":5126,
			"count":69,
			"type":"VEC3"
		},
		{
			"bufferView":17,
			"componentType":5126,
			"count":69,
			"type":"VEC2"
		}
	],
	"bufferViews":[
		{
			"buffer":0,
			"byteLength":1152,
			"byteOffset":0,
			"target":34962
		},
		{
			"buffer":0,
			"byteLength":1152,
			"byteOffset":1152,
			"target":34962
		},
		{
			"buffer":0,
			"byteLength":768,
			"byteOffset":2304,
			"target":34962
		},
		{
			"buffer":0,
			"byteLength":648,
			"byteOffset":3072,
			"target":34963
		},
		{
			"buffer":0,
			"byteLength":840,
			"byteOffset":3720,
			"target":34962
		},
		{
			"buffer":0,
			"byteLength":840,
			"byteOffset":4560,
			"target":34962
		},
		{
			"buffer":0,
			"byteLength":560,
			"byteOffset":5400,
			"target":34962
		},
		{
			"buffer":0,
			"byteLength":648,
			"byteOffset":5960,
			"target":34963
		},
		{
			"buffer":0,
			"byteLength":840,
			"byteOffset":6608,
			"target":34962
		},
		{
			"buffer":0,
			"byteLength":840,
			"byteOffset":7448,
			"target":34962
		},
		{
			"buffer":0,
			"byteLength":560,
			"byteOffset":8288,
			"target":34962
		},
		{
			"buffer":0,
			"byteLength":828,
			"byteOffset":8848,
			"target":34962
		},
		{
			"buffer":0,
			"byteLength":828,
			"byteOffset":9676,
			"target":34962
		},
		{
			"buffer":0,
			"byteLength":552,
			"byteOffset":10504,
			"target":34962
		},
		{
			"buffer":0,
			"byteLength":648,
			"byteOffset":11056,
			"target":34963
		},
		{
			"buffer":0,
			"byteLength":828,
			"byteOffset":11704,
			"target":34962
		},
		{
			"buffer":0,
			"byteLength":828,
			"byteOffset":12532,
			"target":34962
		},
		{
			"buffer":0,
			"byteLength":552,
			"byteOffset":13360,
			"target":34962
		}
	],
	"buffers":[
		{
			"byteLength":13912,
			"uri":"blocDrawer.bin"
		}
	]
}
