{
	"asset":{
		"generator":"Khronos glTF Blender I/O v3.6.27",
		"version":"2.0"
	},
	"scene":0,
	"scenes":[
		{
			"extras":{
				"blenderkitUI":{
					"assetbar_on":0,
					"turn_off":0,
					"dragging":0,
					"margin":0,
					"thumb_size":96,
					"bar_x":78,
					"bar_end":101,
					"bar_width":1407,
					"wcount":13,
					"hcount":1,
					"bar_height":96,
					"bar_y":791,
					"reports_y":595,
					"reports_x":78,
					"rating_x":78,
					"rating_y":695,
					"mouse_x":879,
					"mouse_y":857,
					"has_hit":0,
					"active_index":-3,
					"draw_drag_image":0,
					"draw_snapped_bounds":0,
					"draw_tooltip":0,
					"scrolloffset":0,
					"drawoffset":35,
					"tooltip":"",
					"drag_init":0,
					"drag_length":0
				},
				"blenderkit_models":{
					"search_keywords":"fridge",
					"is_searching":0,
					"report":"Found 24 results. ",
					"search_error":0,
					"append_link":1,
					"import_as":1
				},
				"blenderkit":{},
				"assets used":{
					"d2d659c7-d916-451e-9247-79445f9f225b":{
						"thumbnail":"thumbnail_c63722df-4c15-4123-a97b-c271366be1ff.png.512x512_q85_crop-%2C.png",
						"thumbnail_small":"thumbnail_c63722df-4c15-4123-a97b-c271366be1ff.png.256x256_q85_crop-%2C.png",
						"tooltip":"Fridge\n",
						"downloaded":0,
						"bbox_min":[
							-0.4445,
							-0.4572,
							0.0024
						],
						"bbox_max":[
							0.5356,
							0.4581,
							1.8252
						],
						"pk":5086,
						"url":"https://www.blenderkit.com/api/v1/assets/966e2530-ad0c-4965-a3fb-8c3de11a7a7e/",
						"id":"966e2530-ad0c-4965-a3fb-8c3de11a7a7e",
						"assetBaseId":"d2d659c7-d916-451e-9247-79445f9f225b",
						"versionNumber":1,
						"author":{
							"id":"26233",
							"firstName":"Adam",
							"lastName":"Wiese",
							"gravatarHash":"2e50220d553acda537a8ceef0ba2cdd2",
							"avatar128":"/avatar-redirect/be82f44e-dfa1-4e90-aee4-394da89793ee/128/",
							"aboutMe":"I am a CG automotive artist who has been doing cg for almost 5 years.",
							"aboutMeUrl":"https://www.behance.net/Adam-Wiese",
							"fullName":"Adam Wiese",
							"tooltip":"Adam Wiese\n\nI am a CG automotive artist who has been doing cg for almost 5 years.\n"
						},
						"name":"Fridge",
						"displayName":"Fridge",
						"description":"",
						"assetType":"model",
						"category":"kitchen-appliance",
						"adult":0,
						"isFree":1,
						"tags":[
							"fridge",
							"refrigerator",
							"appliance",
							"kitchen",
							"cold",
							"freezer",
							"archviz",
							"non-manifold",
							"uv",
							"non-manifold",
							"uv"
						],
						"license":"royalty_free",
						"parameters":[
							{
								"parameterType":"faceCount",
								"value":3093
							},
							{
								"parameterType":"productionLevel",
								"value":"finished"
							},
							{
								"parameterType":"model_style",
								"value":"realistic"
							},
							{
								"parameterType":"condition",
								"value":"new"
							},
							{
								"parameterType":"purePbr",
								"value":1
							},
							{
								"parameterType":"shaders",
								"value":[
									"principled"
								]
							},
							{
								"parameterType":"animated",
								"value":0
							},
							{
								"parameterType":"pbrType",
								"value":"metallic"
							},
							{
								"parameterType":"uv",
								"value":1
							},
							{
								"parameterType":"engines",
								"value":[
									"cycles"
								]
							},
							{
								"parameterType":"modifiers",
								"value":[
									""
								]
							},
							{
								"parameterType":"materials",
								"value":[
									"fridge body",
									"plastic - black",
									"plastic - white",
									"plastic - clear",
									"fridge door",
									"chrome"
								]
							},
							{
								"parameterType":"rig",
								"value":0
							},
							{
								"parameterType":"simulation",
								"value":0
							},
							{
								"parameterType":"dimensionX",
								"value":0.9801
							},
							{
								"parameterType":"dimensionY",
								"value":0.9153
							},
							{
								"parameterType":"dimensionZ",
								"value":1.8229
							},
							{
								"parameterType":"boundBoxMinX",
								"value":-0.4445
							},
							{
								"parameterType":"boundBoxMinY",
								"value":-0.4572
							},
							{
								"parameterType":"boundBoxMinZ",
								"value":0.0024
							},
							{
								"parameterType":"boundBoxMaxX",
								"value":0.5356
							},
							{
								"parameterType":"boundBoxMaxY",
								"value":0.4581
							},
							{
								"parameterType":"boundBoxMaxZ",
								"value":1.8252
							},
							{
								"parameterType":"faceCountRender",
								"value":3093
							},
							{
								"parameterType":"meshPolyType",
								"value":"quad_dominant"
							},
							{
								"parameterType":"manifold",
								"value":0
							},
							{
								"parameterType":"objectCount",
								"value":5
							}
						],
						"sourceAppName":"blender",
						"sourceAppVersion":"2.81.16",
						"addonVersion":"1.0.28",
						"created":"2020-02-17T18:36:19.770546+01:00",
						"lastUserInteraction":"2020-03-01T21:53:31.397086+01:00",
						"verificationStatus":"validated",
						"isPrivate":0,
						"files":[
							{
								"fileType":"blend",
								"downloadUrl":"https://www.blenderkit.com/api/v1/downloads/14687/",
								"fileThumbnail":null,
								"fileThumbnailLarge":null,
								"created":"2020-02-17T18:36:51.284212+01:00",
								"modified":"2021-01-22T13:17:01.102373+01:00",
								"mimeType":null,
								"resolution":null,
								"url":"https://public.blenderkit.com/public-assets/assets/966e2530ad0c4965a3fb8c3de11a7a7e/files/blend_727b6f19-92f3-44b7-ac77-565a4dc7feff.blend",
								"file_name":"blend_727b6f19-92f3-44b7-ac77-565a4dc7feff.blend"
							},
							{
								"fileType":"thumbnail",
								"downloadUrl":"https://www.blenderkit.com/api/v1/downloads/14685/",
								"fileThumbnail":"https://public.blenderkit.com/thumbnails/assets/966e2530ad0c4965a3fb8c3de11a7a7e/files/thumbnail_c63722df-4c15-4123-a97b-c271366be1ff.png.96x96_q85_crop-%2C.png",
								"fileThumbnailLarge":"https://public.blenderkit.com/thumbnails/assets/966e2530ad0c4965a3fb8c3de11a7a7e/files/thumbnail_c63722df-4c15-4123-a97b-c271366be1ff.png.1024x1024_q85_crop-%2C.png",
								"created":"2020-02-17T18:36:25.370085+01:00",
								"modified":"2021-01-22T13:17:01.163923+01:00",
								"mimeType":null,
								"resolution":null
							}
						],
						"filesSize":208728,
						"thumbnailSmallUrl":"https://public.blenderkit.com/thumbnails/assets/966e2530ad0c4965a3fb8c3de11a7a7e/files/thumbnail_c63722df-4c15-4123-a97b-c271366be1ff.png.256x256_q85_crop-%2C.png",
						"thumbnailMiddleUrl":"https://public.blenderkit.com/thumbnails/assets/966e2530ad0c4965a3fb8c3de11a7a7e/files/thumbnail_c63722df-4c15-4123-a97b-c271366be1ff.png.512x512_q85_crop-%2C.png",
						"thumbnailLargeUrl":"https://public.blenderkit.com/thumbnails/assets/966e2530ad0c4965a3fb8c3de11a7a7e/files/thumbnail_c63722df-4c15-4123-a97b-c271366be1ff.png.1024x1024_q85_crop-%2C.png",
						"thumbnailXlargeUrl":"https://public.blenderkit.com/thumbnails/assets/966e2530ad0c4965a3fb8c3de11a7a7e/files/thumbnail_c63722df-4c15-4123-a97b-c271366be1ff.png.2048x2048_q85_crop-%2C.png",
						"thumbnailSmallUrlNonsquared":"https://public.blenderkit.com/thumbnails/assets/966e2530ad0c4965a3fb8c3de11a7a7e/files/thumbnail_c63722df-4c15-4123-a97b-c271366be1ff.png.256x256_q85.png",
						"thumbnailMiddleUrlNonsquared":"https://public.blenderkit.com/thumbnails/assets/966e2530ad0c4965a3fb8c3de11a7a7e/files/thumbnail_c63722df-4c15-4123-a97b-c271366be1ff.png.512x512_q85.png",
						"thumbnailLargeUrlNonsquared":"https://public.blenderkit.com/thumbnails/assets/966e2530ad0c4965a3fb8c3de11a7a7e/files/thumbnail_c63722df-4c15-4123-a97b-c271366be1ff.png.1024x1024_q85.png",
						"thumbnailXlargeUrlNonsquared":"https://public.blenderkit.com/thumbnails/assets/966e2530ad0c4965a3fb8c3de11a7a7e/files/thumbnail_c63722df-4c15-4123-a97b-c271366be1ff.png.2048x2048_q85.png",
						"thumbnailSmallUrlWebp":"https://public.blenderkit.com/thumbnails/assets/966e2530ad0c4965a3fb8c3de11a7a7e/files/thumbnail_c63722df-4c15-4123-a97b-c271366be1ff.png.256x256_q85_crop-%2C.png.webp?webp_generated=1611321736",
						"thumbnailMiddleUrlWebp":"https://public.blenderkit.com/thumbnails/assets/966e2530ad0c4965a3fb8c3de11a7a7e/files/thumbnail_c63722df-4c15-4123-a97b-c271366be1ff.png.512x512_q85_crop-%2C.png.webp?webp_generated=1611321736",
						"thumbnailLargeUrlWebp":"https://public.blenderkit.com/thumbnails/assets/966e2530ad0c4965a3fb8c3de11a7a7e/files/thumbnail_c63722df-4c15-4123-a97b-c271366be1ff.png.1024x1024_q85_crop-%2C.png.webp?webp_generated=1611321736",
						"thumbnailXlargeUrlWebp":"https://public.blenderkit.com/thumbnails/assets/966e2530ad0c4965a3fb8c3de11a7a7e/files/thumbnail_c63722df-4c15-4123-a97b-c271366be1ff.png.2048x2048_q85_crop-%2C.png.webp?webp_generated=1611321736",
						"thumbnailSmallUrlNonsquaredWebp":"https://public.blenderkit.com/thumbnails/assets/966e2530ad0c4965a3fb8c3de11a7a7e/files/thumbnail_c63722df-4c15-4123-a97b-c271366be1ff.png.256x256_q85.png.webp?webp_generated=1611321736",
						"thumbnailMiddleUrlNonsquaredWebp":"https://public.blenderkit.com/thumbnails/assets/966e2530ad0c4965a3fb8c3de11a7a7e/files/thumbnail_c63722df-4c15-4123-a97b-c271366be1ff.png.512x512_q85.png.webp?webp_generated=1611321736",
						"thumbnailLargeUrlNonsquaredWebp":"https://public.blenderkit.com/thumbnails/assets/966e2530ad0c4965a3fb8c3de11a7a7e/files/thumbnail_c63722df-4c15-4123-a97b-c271366be1ff.png.1024x1024_q85.png.webp?webp_generated=1611321736",
						"thumbnailXlargeUrlNonsquaredWebp":"https://public.blenderkit.com/thumbnails/assets/966e2530ad0c4965a3fb8c3de11a7a7e/files/thumbnail_c63722df-4c15-4123-a97b-c271366be1ff.png.2048x2048_q85.png.webp?webp_generated=1611321736",
						"showMarketingLabels":1,
						"webpGeneratedTimestamp":1611321736,
						"score":150.66666666666666,
						"ratingsMedian":{
							"competition-2022-votes":null,
							"quality":8.0,
							"virtualPrice":null,
							"complexity":null,
							"workingHours":2.0,
							"virtualPriceAdmin":null,
							"complexityAdmin":null,
							"bookmarks":1.0
						},
						"ratingsAverage":{
							"competition-2022-votes":null,
							"quality":7.533333333333333,
							"virtualPrice":null,
							"complexity":null,
							"workingHours":2.0,
							"virtualPriceAdmin":null,
							"complexityAdmin":null,
							"bookmarks":1.0
						},
						"ratingsCount":{
							"competition-2022-votes":0,
							"quality":15,
							"virtualPrice":0,
							"complexity":0,
							"workingHours":11,
							"virtualPriceAdmin":0,
							"complexityAdmin":0,
							"bookmarks":5
						},
						"ratingsSum":{
							"competition-2022-votes":null,
							"quality":113.0,
							"virtualPrice":null,
							"complexity":null,
							"workingHours":319.8,
							"virtualPriceAdmin":null,
							"complexityAdmin":null,
							"bookmarks":5.0
						},
						"lastBlendUpload":"2020-02-17T17:36:51.284212+00:00",
						"lastGltfUpload":null,
						"lastZipFileUpload":null,
						"lastThumbnailUpload":"2020-02-17T17:36:25.370085+00:00",
						"lastVideoUpload":null,
						"lastResolutionUpload":null,
						"canDownload":1,
						"canDownloadError":1,
						"available_resolutions":[],
						"max_resolution":0,
						"resolution":"resolution_1K"
					}
				},
				"uuid":"6baad288-04e7-4081-b6f4-e01d16c43190",
				"assets rated":{
					"d2d659c7-d916-451e-9247-79445f9f225b":0
				},
				"jiggle_tree":{},
				"jiggle_rate":1.0,
				"pmc_sceneprops":{},
				"assets reported":{}
			},
			"name":"Scene",
			"nodes":[
				0
			]
		}
	],
	"nodes":[
		{
			"mesh":0,
			"name":"Cube",
			"scale":[
				0.5,
				1,
				0.5
			]
		}
	],
	"meshes":[
		{
			"name":"Cube",
			"primitives":[
				{
					"attributes":{
						"POSITION":0,
						"NORMAL":1,
						"TEXCOORD_0":2
					},
					"indices":3
				}
			]
		}
	],
	"accessors":[
		{
			"bufferView":0,
			"componentType":5126,
			"count":24,
			"max":[
				1,
				2,
				1
			],
			"min":[
				-1,
				0,
				-1
			],
			"type":"VEC3"
		},
		{
			"bufferView":1,
			"componentType":5126,
			"count":24,
			"type":"VEC3"
		},
		{
			"bufferView":2,
			"componentType":5126,
			"count":24,
			"type":"VEC2"
		},
		{
			"bufferView":3,
			"componentType":5123,
			"count":36,
			"type":"SCALAR"
		}
	],
	"bufferViews":[
		{
			"buffer":0,
			"byteLength":288,
			"byteOffset":0,
			"target":34962
		},
		{
			"buffer":0,
			"byteLength":288,
			"byteOffset":288,
			"target":34962
		},
		{
			"buffer":0,
			"byteLength":192,
			"byteOffset":576,
			"target":34962
		},
		{
			"buffer":0,
			"byteLength":72,
			"byteOffset":768,
			"target":34963
		}
	],
	"buffers":[
		{
			"byteLength":840,
			"uri":"data:application/octet-stream;base64,"
		}
	]
}
